<svg viewBox="0 0 64 64" xmlns="http://www.w3.org/2000/svg" role="img" aria-label="Sherlog Olms">
  <defs>
    <linearGradient id="g" x1="0" y1="0" x2="1" y2="1">
      <stop offset="0" stop-color="#5B8DEF"/>
      <stop offset="1" stop-color="#7C5CFC"/>
    </linearGradient>
  </defs>
  <rect x="2" y="2" width="60" height="60" rx="16" fill="url(#g)"/>
  <g transform="translate(32 32) scale(0.87) translate(-32 -32)">
    <g fill="none" stroke="#ffffff" stroke-width="2.1" stroke-linecap="round" stroke-linejoin="round" opacity="0.55">
      <polyline points="12,27.5 8.5,32 12,36.5"/>
      <polyline points="52,27.5 55.5,32 52,36.5"/>
    </g>
    <g fill="none" stroke="#ffffff" stroke-width="3.6" stroke-linecap="round" stroke-linejoin="round">
      <path d="M26.5,27.2 C26.5,25.3 24.4,24.5 22.5,24.5 C19.7,24.5 17.8,26 17.8,28 C17.8,29.9 19.5,30.8 22.5,31.8 C25.5,32.8 27.2,33.7 27.2,35.7 C27.2,37.8 25.1,39.5 22.5,39.5 C20.6,39.5 18.3,38.8 18.3,36.8"/>
      <circle cx="39" cy="32" r="7.2"/>
    </g>
  </g>
</svg>
